<svg width="3745" height="1210" xmlns="http://www.w3.org/2000/svg" xmlns:xlink="http://www.w3.org/1999/xlink" xml:space="preserve" overflow="hidden"><g transform="translate(-169 -517)"><g><path d="M174.5 600.283C174.5 557.877 208.877 523.5 251.283 523.5L3832.72 523.5C3875.12 523.5 3909.5 557.877 3909.5 600.283L3909.5 1645.72C3909.5 1688.12 3875.12 1722.5 3832.72 1722.5L251.283 1722.5C208.877 1722.5 174.5 1688.12 174.5 1645.72Z" stroke="#000000" stroke-width="6.875" stroke-linecap="butt" stroke-linejoin="miter" stroke-miterlimit="8" stroke-opacity="1" fill="#FFFFFF" fill-rule="evenodd" fill-opacity="1"/><text fill="#000000" fill-opacity="1" font-family="Times New Roman,Times New Roman_MSFontService,sans-serif" font-style="normal" font-variant="normal" font-weight="400" font-stretch="normal" font-size="110" text-anchor="start" direction="ltr" writing-mode="lr-tb" unicode-bidi="normal" text-decoration="none" transform="matrix(1 0 0 1 1905.41 668)">World</text><path d="M360.5 743.609C360.5 707.098 390.098 677.5 426.609 677.5L1414.39 677.5C1450.9 677.5 1480.5 707.098 1480.5 743.609L1480.5 1508.39C1480.5 1544.9 1450.9 1574.5 1414.39 1574.5L426.609 1574.5C390.098 1574.5 360.5 1544.9 360.5 1508.39Z" stroke="#1C440D" stroke-width="6.875" stroke-linecap="butt" stroke-linejoin="miter" stroke-miterlimit="8" stroke-opacity="1" fill="#4EA72E" fill-rule="evenodd" fill-opacity="1"/><text fill="#FFFFFF" fill-opacity="1" font-family="Times New Roman,Times New Roman_MSFontService,sans-serif" font-style="normal" font-variant="normal" font-weight="400" font-stretch="normal" font-size="92" text-anchor="start" direction="ltr" writing-mode="lr-tb" unicode-bidi="normal" text-decoration="none" transform="matrix(1 0 0 1 411.857 802)">Transmitter</text><path d="M491.5 930.334C491.5 908.886 508.887 891.5 530.334 891.5L1309.67 891.5C1331.11 891.5 1348.5 908.886 1348.5 930.334L1348.5 1085.67C1348.5 1107.11 1331.11 1124.5 1309.67 1124.5L530.334 1124.5C508.887 1124.5 491.5 1107.11 491.5 1085.67Z" stroke="#042433" stroke-width="6.875" stroke-linecap="butt" stroke-linejoin="miter" stroke-miterlimit="8" stroke-opacity="1" fill="#156082" fill-rule="evenodd" fill-opacity="1"/><text fill="#FFFFFF" fill-opacity="1" font-family="Times New Roman,Times New Roman_MSFontService,sans-serif" font-style="normal" font-variant="normal" font-weight="400" font-stretch="normal" font-size="83" text-anchor="start" direction="ltr" writing-mode="lr-tb" unicode-bidi="normal" text-decoration="none" transform="matrix(1 0 0 1 689.261 1038)">Signal Source</text><path d="M491.5 1260.33C491.5 1238.89 508.887 1221.5 530.334 1221.5L1309.67 1221.5C1331.11 1221.5 1348.5 1238.89 1348.5 1260.33L1348.5 1415.67C1348.5 1437.11 1331.11 1454.5 1309.67 1454.5L530.334 1454.5C508.887 1454.5 491.5 1437.11 491.5 1415.67Z" stroke="#042433" stroke-width="6.875" stroke-linecap="butt" stroke-linejoin="miter" stroke-miterlimit="8" stroke-opacity="1" fill="#156082" fill-rule="evenodd" fill-opacity="1"/><text fill="#FFFFFF" fill-opacity="1" font-family="Times New Roman,Times New Roman_MSFontService,sans-serif" font-style="normal" font-variant="normal" font-weight="400" font-stretch="normal" font-size="83" text-anchor="start" direction="ltr" writing-mode="lr-tb" unicode-bidi="normal" text-decoration="none" transform="matrix(1 0 0 1 779.782 1368)">Antenn</text><text fill="#FFFFFF" fill-opacity="1" font-family="Times New Roman,Times New Roman_MSFontService,sans-serif" font-style="normal" font-variant="normal" font-weight="400" font-stretch="normal" font-size="83" text-anchor="start" direction="ltr" writing-mode="lr-tb" unicode-bidi="normal" text-decoration="none" transform="matrix(1 0 0 1 1022.7 1368)">a</text><path d="M1665.5 1027.83C1665.5 1001.14 1687.14 979.5 1713.83 979.5L2370.17 979.5C2396.86 979.5 2418.5 1001.14 2418.5 1027.83L2418.5 1221.17C2418.5 1247.86 2396.86 1269.5 2370.17 1269.5L1713.83 1269.5C1687.14 1269.5 1665.5 1247.86 1665.5 1221.17Z" stroke="#622C0F" stroke-width="6.875" stroke-linecap="butt" stroke-linejoin="miter" stroke-miterlimit="8" stroke-opacity="1" fill="#E97132" fill-rule="evenodd" fill-opacity="1"/><text fill="#FFFFFF" fill-opacity="1" font-family="Times New Roman,Times New Roman_MSFontService,sans-serif" font-style="normal" font-variant="normal" font-weight="400" font-stretch="normal" font-size="83" text-anchor="start" direction="ltr" writing-mode="lr-tb" unicode-bidi="normal" text-decoration="none" transform="matrix(1 0 0 1 1904.21 1154)">Channe</text><text fill="#FFFFFF" fill-opacity="1" font-family="Times New Roman,Times New Roman_MSFontService,sans-serif" font-style="normal" font-variant="normal" font-weight="400" font-stretch="normal" font-size="83" text-anchor="start" direction="ltr" writing-mode="lr-tb" unicode-bidi="normal" text-decoration="none" transform="matrix(1 0 0 1 2156.29 1154)">l</text><path d="M0.0330237-3.43734 162.91-1.87253 162.844 5.00216-0.0330237 3.43734ZM158.426-12.2286 185.793 1.78497 158.162 15.2701Z" fill="#000000" fill-rule="nonzero" fill-opacity="1" transform="matrix(1 0 0 -1 1480.5 1126.28)"/><path d="M2418.53 1121.06 2572.88 1122.62 2572.81 1129.49 2418.47 1127.94ZM2568.4 1112.26 2595.76 1126.28 2568.12 1139.76Z" fill="#000000" fill-rule="nonzero" fill-opacity="1"/><path d="M2595.5 743.609C2595.5 707.098 2625.1 677.5 2661.61 677.5L3649.39 677.5C3685.9 677.5 3715.5 707.098 3715.5 743.609L3715.5 1508.39C3715.5 1544.9 3685.9 1574.5 3649.39 1574.5L2661.61 1574.5C2625.1 1574.5 2595.5 1544.9 2595.5 1508.39Z" stroke="#1C440D" stroke-width="6.875" stroke-linecap="butt" stroke-linejoin="miter" stroke-miterlimit="8" stroke-opacity="1" fill="#4EA72E" fill-rule="evenodd" fill-opacity="1"/><text fill="#FFFFFF" fill-opacity="1" font-family="Times New Roman,Times New Roman_MSFontService,sans-serif" font-style="normal" font-variant="normal" font-weight="400" font-stretch="normal" font-size="92" text-anchor="start" direction="ltr" writing-mode="lr-tb" unicode-bidi="normal" text-decoration="none" transform="matrix(1 0 0 1 2647.59 802)">Receiver</text><path d="M2727.5 930.334C2727.5 908.886 2744.89 891.5 2766.33 891.5L3545.67 891.5C3567.11 891.5 3584.5 908.886 3584.5 930.334L3584.5 1085.67C3584.5 1107.11 3567.11 1124.5 3545.67 1124.5L2766.33 1124.5C2744.89 1124.5 2727.5 1107.11 2727.5 1085.67Z" stroke="#042433" stroke-width="6.875" stroke-linecap="butt" stroke-linejoin="miter" stroke-miterlimit="8" stroke-opacity="1" fill="#156082" fill-rule="evenodd" fill-opacity="1"/><text fill="#FFFFFF" fill-opacity="1" font-family="Times New Roman,Times New Roman_MSFontService,sans-serif" font-style="normal" font-variant="normal" font-weight="400" font-stretch="normal" font-size="83" text-anchor="start" direction="ltr" writing-mode="lr-tb" unicode-bidi="normal" text-decoration="none" transform="matrix(1 0 0 1 2963.95 1038)">Signal Sink</text><path d="M2727.5 1260.33C2727.5 1238.89 2744.89 1221.5 2766.33 1221.5L3545.67 1221.5C3567.11 1221.5 3584.5 1238.89 3584.5 1260.33L3584.5 1415.67C3584.5 1437.11 3567.11 1454.5 3545.67 1454.5L2766.33 1454.5C2744.89 1454.5 2727.5 1437.11 2727.5 1415.67Z" stroke="#042433" stroke-width="6.875" stroke-linecap="butt" stroke-linejoin="miter" stroke-miterlimit="8" stroke-opacity="1" fill="#156082" fill-rule="evenodd" fill-opacity="1"/><text fill="#FFFFFF" fill-opacity="1" font-family="Times New Roman,Times New Roman_MSFontService,sans-serif" font-style="normal" font-variant="normal" font-weight="400" font-stretch="normal" font-size="83" text-anchor="start" direction="ltr" writing-mode="lr-tb" unicode-bidi="normal" text-decoration="none" transform="matrix(1 0 0 1 3015.51 1368)">Antenn</text><text fill="#FFFFFF" fill-opacity="1" font-family="Times New Roman,Times New Roman_MSFontService,sans-serif" font-style="normal" font-variant="normal" font-weight="400" font-stretch="normal" font-size="83" text-anchor="start" direction="ltr" writing-mode="lr-tb" unicode-bidi="normal" text-decoration="none" transform="matrix(1 0 0 1 3258.43 1368)">a</text></g></g></svg>